<?xml version="1.0" encoding="UTF-8"?>
<svg version="1.1" xmlns="http://www.w3.org/2000/svg" width="1440" height="520">
<path d="M0 0 C2.28942383 -0.00702002 4.57884745 -0.01410685 6.86827087 -0.02125549 C14.20905819 -0.04079204 21.54981435 -0.04569481 28.890625 -0.046875 C30.14503513 -0.04731686 31.39944527 -0.04775871 32.69186783 -0.04821396 C74.20088753 -0.05587952 115.54520394 0.61359571 156.98002625 3.07588959 C159.96232089 3.25151382 162.94494754 3.4211285 165.92757893 3.59092236 C252.29041119 8.51401957 338.49279992 16.39659015 593.32939911 47.49665833 C663.64129199 56.92490266 734.22736469 64.33327686 805.140625 67.203125 C806.09381717 67.24253078 807.04700933 67.28193657 808.02908611 67.32253647 C825.59574967 68.03860179 843.13442547 68.3762238 860.71484375 68.40625 C863.27820858 68.4132738 865.84157325 68.42036061 868.40493774 68.42750549 C875.85029333 68.44523401 883.29561874 68.45175835 890.74099398 68.45281267 C892.83822295 68.45312651 894.93545163 68.45379113 897.03268051 68.45446396 C938.80834506 68.4640256 980.44857773 68.15732524 1022.140625 65.203125 C1024.75616517 65.02412565 1027.37172571 64.84542363 1029.98730469 64.66699219 C1129.24441823 57.83157267 1228.24880198 44.22676575 1324.890625 20.265625 C1325.77430756 20.04852875 1326.65799011 19.8314325 1327.56845093 19.60775757 C1348.2927347 14.48565302 1368.63994052 8.20332534 1389.140625 2.203125 C1389.140625 173.143125 1389.140625 344.083125 1389.140625 520.203125 C913.940625 520.203125 438.740625 520.203125 -50.859375 520.203125 C-50.859375 349.263125 -50.859375 178.323125 -50.859375 2.203125 C-45.29632396 1.50774362 -39.92261845 0.93988606 -34.35058594 0.65332031 C-33.12692133 0.59036711 -33.12692133 0.59036711 -31.87853622 0.52614212 C-21.25677568 0.02656223 -10.63139869 0.02015037 0 0 Z " fill="#0E4C61" transform="translate(50.859375,-0.203125)"/>
</svg>
