<?xml version="1.0" encoding="UTF-8"?>
<svg version="1.1" xmlns="http://www.w3.org/2000/svg" width="1440" height="577">
<path d="M0 0 C4.09398399 1.63759359 7.96169472 3.44609652 11.87109375 5.45703125 C13.2475677 6.15841753 14.62437274 6.85915433 16.00146484 7.55932617 C16.72340027 7.92657806 17.44533569 8.29382996 18.18914795 8.67221069 C57.07400953 28.39331791 97.74584659 43.99578268 139 58 C139.71464417 58.24300842 140.42928833 58.48601685 141.16558838 58.73638916 C231.17648727 89.28350828 324.64050753 109.16449729 1114 107 C1114.90890991 106.8214447 1115.81781982 106.6428894 1116.75427246 106.45892334 C1176.29313403 94.72419646 1235.16039235 79.71707255 1292.80627441 60.72277832 C1294.98823601 60.00387594 1297.17134283 59.28852813 1299.35449219 58.57324219 C1332.89785661 47.54793621 1366.00562104 34.96154491 1398 20 C1399.09248047 19.48953125 1400.18496094 18.9790625 1401.31054688 18.453125 C1412.83789098 13.04110058 1424.26408601 7.50627924 1435.40234375 1.328125 C1438 0 1438 0 1440 0 C1440 190.41 1440 380.82 1440 577 C964.8 577 489.6 577 0 577 C0 386.59 0 196.18 0 0 Z " fill="#0E4C61" transform="translate(0,0)"/>
</svg>
